<?xml version="1.0" encoding="UTF-8" standalone="no"?>
<!DOCTYPE svg PUBLIC "-//W3C//DTD SVG 1.1//EN"
 "http://www.w3.org/Graphics/SVG/1.1/DTD/svg11.dtd">
<!-- Generated by graphviz version 2.47.0 (20210316.0004)
 -->
<!-- Title: dependencies Pages: 1 -->
<svg width="504pt" height="211pt"
 viewBox="0.00 0.00 504.00 211.00" xmlns="http://www.w3.org/2000/svg" xmlns:xlink="http://www.w3.org/1999/xlink">
<g id="graph0" class="graph" transform="scale(1 1) rotate(0) translate(4 207)">
<title>dependencies</title>
<polygon fill="white" stroke="transparent" points="-4,4 -4,-207 500,-207 500,4 -4,4"/>
<text text-anchor="start" x="227.01" y="-42.4" font-family="Times-12" font-weight="bold" font-size="14.00">Legend</text>
<polygon fill="#ffffb3" stroke="transparent" points="14,-10 14,-30 34,-30 34,-10 14,-10"/>
<text text-anchor="start" x="37.63" y="-15.4" font-family="Times-12" font-size="14.00"> &#160;Declarations</text>
<polygon fill="#8dd3c7" stroke="transparent" points="127,-10 127,-30 147,-30 147,-10 127,-10"/>
<text text-anchor="start" x="150.73" y="-15.4" font-family="Times-12" font-size="14.00"> &#160;Module</text>
<polygon fill="#80b1d3" stroke="transparent" points="213,-10 213,-30 233,-30 233,-10 213,-10"/>
<text text-anchor="start" x="236.78" y="-15.4" font-family="Times-12" font-size="14.00"> &#160;Bootstrap</text>
<polygon fill="#fdb462" stroke="transparent" points="310,-10 310,-30 330,-30 330,-10 310,-10"/>
<text text-anchor="start" x="333.67" y="-15.4" font-family="Times-12" font-size="14.00"> &#160;Providers</text>
<polygon fill="#fb8072" stroke="transparent" points="406,-10 406,-30 426,-30 426,-10 406,-10"/>
<text text-anchor="start" x="429.73" y="-15.4" font-family="Times-12" font-size="14.00"> &#160;Exports</text>
<g id="clust1" class="cluster">
<title>cluster_SharedModule</title>
<polygon fill="none" stroke="black" stroke-dasharray="1,5" points="104,-70 104,-195 392,-195 392,-70 104,-70"/>
</g>
<g id="clust4" class="cluster">
<title>cluster_SharedModule_exports</title>
<polygon fill="none" stroke="black" points="112,-135 112,-187 384,-187 384,-135 112,-135"/>
</g>
<!-- CisImportModule  -->
<g id="node1" class="node">
<title>CisImportModule </title>
<polygon fill="#fb8072" stroke="black" points="375.82,-179 256.18,-179 256.18,-143 375.82,-143 375.82,-179"/>
<text text-anchor="middle" x="316" y="-156.8" font-family="Times,serif" font-size="14.00">CisImportModule </text>
</g>
<!-- NgImportModule  -->
<g id="node2" class="node">
<title>NgImportModule </title>
<polygon fill="#fb8072" stroke="black" points="238.26,-179 119.74,-179 119.74,-143 238.26,-143 238.26,-179"/>
<text text-anchor="middle" x="179" y="-156.8" font-family="Times,serif" font-size="14.00">NgImportModule </text>
</g>
<!-- SharedModule -->
<g id="node3" class="node">
<title>SharedModule</title>
<polygon fill="#8dd3c7" stroke="black" points="296.42,-114 293.42,-118 272.42,-118 269.42,-114 197.58,-114 197.58,-78 296.42,-78 296.42,-114"/>
<text text-anchor="middle" x="247" y="-91.8" font-family="Times,serif" font-size="14.00">SharedModule</text>
</g>
<!-- SharedModule&#45;&gt;CisImportModule  -->
<g id="edge1" class="edge">
<title>SharedModule&#45;&gt;CisImportModule </title>
<path fill="none" stroke="black" stroke-dasharray="5,2" d="M276.15,-114.11C276.15,-114.11 276.15,-132.99 276.15,-132.99"/>
<polygon fill="black" stroke="black" points="272.65,-132.99 276.15,-142.99 279.65,-132.99 272.65,-132.99"/>
</g>
<!-- SharedModule&#45;&gt;NgImportModule  -->
<g id="edge2" class="edge">
<title>SharedModule&#45;&gt;NgImportModule </title>
<path fill="none" stroke="black" stroke-dasharray="5,2" d="M217.96,-114.11C217.96,-114.11 217.96,-132.99 217.96,-132.99"/>
<polygon fill="black" stroke="black" points="214.46,-132.99 217.96,-142.99 221.46,-132.99 214.46,-132.99"/>
</g>
</g>
</svg>
