<?xml version="1.0" encoding="UTF-8" standalone="no"?>
<!DOCTYPE svg PUBLIC "-//W3C//DTD SVG 1.1//EN"
 "http://www.w3.org/Graphics/SVG/1.1/DTD/svg11.dtd">
<!-- Generated by graphviz version 2.47.0 (20210316.0004)
 -->
<!-- Title: dependencies Pages: 1 -->
<svg width="1040pt" height="222pt"
 viewBox="0.00 0.00 1040.00 222.00" xmlns="http://www.w3.org/2000/svg" xmlns:xlink="http://www.w3.org/1999/xlink">
<g id="graph0" class="graph" transform="scale(1 1) rotate(0) translate(4 218)">
<title>dependencies</title>
<polygon fill="white" stroke="transparent" points="-4,4 -4,-218 1036,-218 1036,4 -4,4"/>
<text text-anchor="start" x="495.01" y="-42.4" font-family="Times-12" font-weight="bold" font-size="14.00">Legend</text>
<polygon fill="#ffffb3" stroke="transparent" points="282,-10 282,-30 302,-30 302,-10 282,-10"/>
<text text-anchor="start" x="305.63" y="-15.4" font-family="Times-12" font-size="14.00"> &#160;Declarations</text>
<polygon fill="#8dd3c7" stroke="transparent" points="395,-10 395,-30 415,-30 415,-10 395,-10"/>
<text text-anchor="start" x="418.73" y="-15.4" font-family="Times-12" font-size="14.00"> &#160;Module</text>
<polygon fill="#80b1d3" stroke="transparent" points="481,-10 481,-30 501,-30 501,-10 481,-10"/>
<text text-anchor="start" x="504.78" y="-15.4" font-family="Times-12" font-size="14.00"> &#160;Bootstrap</text>
<polygon fill="#fdb462" stroke="transparent" points="578,-10 578,-30 598,-30 598,-10 578,-10"/>
<text text-anchor="start" x="601.67" y="-15.4" font-family="Times-12" font-size="14.00"> &#160;Providers</text>
<polygon fill="#fb8072" stroke="transparent" points="674,-10 674,-30 694,-30 694,-10 674,-10"/>
<text text-anchor="start" x="697.73" y="-15.4" font-family="Times-12" font-size="14.00"> &#160;Exports</text>
<g id="clust7" class="cluster">
<title>cluster_CoreModule</title>
<polygon fill="none" stroke="black" stroke-dasharray="1,5" points="8,-70 8,-198 350,-198 350,-70 8,-70"/>
</g>
<g id="clust9" class="cluster">
<title>cluster_CoreModule_imports</title>
<polygon fill="none" stroke="black" points="228,-78 228,-130 342,-130 342,-78 228,-78"/>
</g>
<g id="clust12" class="cluster">
<title>cluster_CoreModule_providers</title>
<polygon fill="none" stroke="black" points="16,-78 16,-130 220,-130 220,-78 16,-78"/>
</g>
<g id="clust13" class="cluster">
<title>cluster_FeaturesModule</title>
<polygon fill="none" stroke="black" stroke-dasharray="1,5" points="358,-146 358,-198 480,-198 480,-146 358,-146"/>
</g>
<g id="clust19" class="cluster">
<title>cluster_LayoutsModule</title>
<polygon fill="none" stroke="black" stroke-dasharray="1,5" points="488,-146 488,-198 608,-198 608,-146 488,-146"/>
</g>
<g id="clust31" class="cluster">
<title>cluster_SharedModule</title>
<polygon fill="none" stroke="black" stroke-dasharray="1,5" points="616,-138 616,-206 904,-206 904,-138 616,-138"/>
</g>
<g id="clust34" class="cluster">
<title>cluster_SharedModule_exports</title>
<polygon fill="none" stroke="black" points="624,-146 624,-198 896,-198 896,-146 624,-146"/>
</g>
<g id="clust37" class="cluster">
<title>cluster_ViewsModule</title>
<polygon fill="none" stroke="black" stroke-dasharray="1,5" points="912,-146 912,-198 1024,-198 1024,-146 912,-146"/>
</g>
<!-- SharedModule -->
<g id="node1" class="node">
<title>SharedModule</title>
<polygon fill="#8dd3c7" stroke="black" points="334.42,-122 331.42,-126 310.42,-126 307.42,-122 235.58,-122 235.58,-86 334.42,-86 334.42,-122"/>
<text text-anchor="middle" x="285" y="-99.8" font-family="Times,serif" font-size="14.00">SharedModule</text>
</g>
<!-- CoreModule -->
<g id="node2" class="node">
<title>CoreModule</title>
<polygon fill="#8dd3c7" stroke="black" points="244.26,-190 241.26,-194 220.26,-194 217.26,-190 157.74,-190 157.74,-154 244.26,-154 244.26,-190"/>
<text text-anchor="middle" x="201" y="-167.8" font-family="Times,serif" font-size="14.00">CoreModule</text>
</g>
<!-- SharedModule&#45;&gt;CoreModule -->
<g id="edge1" class="edge">
<title>SharedModule&#45;&gt;CoreModule</title>
<path fill="none" stroke="black" d="M240.08,-122.22C240.08,-122.22 240.08,-143.73 240.08,-143.73"/>
<polygon fill="black" stroke="black" points="236.58,-143.73 240.08,-153.73 243.58,-143.73 236.58,-143.73"/>
</g>
<!-- FeaturesModule -->
<g id="node4" class="node">
<title>FeaturesModule</title>
<polygon fill="#8dd3c7" stroke="black" points="472.47,-190 469.47,-194 448.47,-194 445.47,-190 365.53,-190 365.53,-154 472.47,-154 472.47,-190"/>
<text text-anchor="middle" x="419" y="-167.8" font-family="Times,serif" font-size="14.00">FeaturesModule</text>
</g>
<!-- SharedModule&#45;&gt;FeaturesModule -->
<g id="edge3" class="edge">
<title>SharedModule&#45;&gt;FeaturesModule</title>
<path fill="none" stroke="black" d="M289.3,-122.22C289.3,-142.37 289.3,-172 289.3,-172 289.3,-172 355.5,-172 355.5,-172"/>
<polygon fill="black" stroke="black" points="355.5,-175.5 365.5,-172 355.5,-168.5 355.5,-175.5"/>
</g>
<!-- LayoutsModule -->
<g id="node5" class="node">
<title>LayoutsModule</title>
<polygon fill="#8dd3c7" stroke="black" points="600.15,-190 597.15,-194 576.15,-194 573.15,-190 495.85,-190 495.85,-154 600.15,-154 600.15,-190"/>
<text text-anchor="middle" x="548" y="-167.8" font-family="Times,serif" font-size="14.00">LayoutsModule</text>
</g>
<!-- SharedModule&#45;&gt;LayoutsModule -->
<g id="edge4" class="edge">
<title>SharedModule&#45;&gt;LayoutsModule</title>
<path fill="none" stroke="black" d="M334.47,-115C410.65,-115 548,-115 548,-115 548,-115 548,-143.96 548,-143.96"/>
<polygon fill="black" stroke="black" points="544.5,-143.96 548,-153.96 551.5,-143.96 544.5,-143.96"/>
</g>
<!-- CisImportModule  -->
<g id="node6" class="node">
<title>CisImportModule </title>
<polygon fill="#fb8072" stroke="black" points="887.82,-190 768.18,-190 768.18,-154 887.82,-154 887.82,-190"/>
<text text-anchor="middle" x="828" y="-167.8" font-family="Times,serif" font-size="14.00">CisImportModule </text>
</g>
<!-- SharedModule&#45;&gt;CisImportModule  -->
<g id="edge5" class="edge">
<title>SharedModule&#45;&gt;CisImportModule </title>
<path fill="none" stroke="black" stroke-dasharray="5,2" d="M334.63,-101C468.67,-101 828,-101 828,-101 828,-101 828,-143.72 828,-143.72"/>
<polygon fill="black" stroke="black" points="824.5,-143.72 828,-153.72 831.5,-143.72 824.5,-143.72"/>
</g>
<!-- NgImportModule  -->
<g id="node7" class="node">
<title>NgImportModule </title>
<polygon fill="#fb8072" stroke="black" points="750.26,-190 631.74,-190 631.74,-154 750.26,-154 750.26,-190"/>
<text text-anchor="middle" x="691" y="-167.8" font-family="Times,serif" font-size="14.00">NgImportModule </text>
</g>
<!-- SharedModule&#45;&gt;NgImportModule  -->
<g id="edge6" class="edge">
<title>SharedModule&#45;&gt;NgImportModule </title>
<path fill="none" stroke="black" stroke-dasharray="5,2" d="M334.38,-108C442.58,-108 691,-108 691,-108 691,-108 691,-143.83 691,-143.83"/>
<polygon fill="black" stroke="black" points="687.5,-143.83 691,-153.83 694.5,-143.83 687.5,-143.83"/>
</g>
<!-- ViewsModule -->
<g id="node8" class="node">
<title>ViewsModule</title>
<polygon fill="#8dd3c7" stroke="black" points="1015.81,-190 1012.81,-194 991.81,-194 988.81,-190 920.19,-190 920.19,-154 1015.81,-154 1015.81,-190"/>
<text text-anchor="middle" x="968" y="-167.8" font-family="Times,serif" font-size="14.00">ViewsModule</text>
</g>
<!-- SharedModule&#45;&gt;ViewsModule -->
<g id="edge7" class="edge">
<title>SharedModule&#45;&gt;ViewsModule</title>
<path fill="none" stroke="black" d="M334.39,-94C491.28,-94 968,-94 968,-94 968,-94 968,-143.91 968,-143.91"/>
<polygon fill="black" stroke="black" points="964.5,-143.91 968,-153.91 971.5,-143.91 964.5,-143.91"/>
</g>
<!-- StateManagerService -->
<g id="node3" class="node">
<title>StateManagerService</title>
<ellipse fill="#fdb462" stroke="black" cx="118" cy="-104" rx="93.73" ry="18"/>
<text text-anchor="middle" x="118" y="-99.8" font-family="Times,serif" font-size="14.00">StateManagerService</text>
</g>
<!-- StateManagerService&#45;&gt;CoreModule -->
<g id="edge2" class="edge">
<title>StateManagerService&#45;&gt;CoreModule</title>
<path fill="none" stroke="black" d="M184.62,-116.79C184.62,-116.79 184.62,-143.88 184.62,-143.88"/>
<polygon fill="black" stroke="black" points="181.12,-143.88 184.62,-153.88 188.12,-143.88 181.12,-143.88"/>
</g>
</g>
</svg>
